<?xml version="1.0" encoding="UTF-8" standalone="no"?>
<!DOCTYPE svg PUBLIC "-//W3C//DTD SVG 1.1//EN" "http://www.w3.org/Graphics/SVG/1.1/DTD/svg11.dtd">
<svg version="1.1" xmlns="http://www.w3.org/2000/svg" xmlns:xlink="http://www.w3.org/1999/xlink" preserveAspectRatio="xMidYMid meet" viewBox="237.5944856843305 303.4215673747059 166.7287963890252 116.74846099509216" width="166.73" height="116.75"><defs><path d="M360.51 390.69L360.32 384.59L379.6 384.58L379.42 390.5L360.51 390.69" id="btzsKuhz0"></path><path d="M357.08 403.26C356.47 402.8 342.73 396.33 342.73 396.33C336.62 398.35 335.25 412.08 334.62 420.17C335.6 420.17 340.47 420.17 349.23 420.17L357.08 403.26" id="a2G2htt3yH"></path><path d="M381.43 403.26C382.04 402.8 395.78 396.33 395.78 396.33C401.89 398.35 403.27 412.08 403.89 420.17C402.91 420.17 398.04 420.17 389.28 420.17L381.43 403.26" id="bfjeRfx6J"></path><path d="M369.26 381.28L362.81 381.28C362.81 383.72 362.81 385.08 362.81 385.35C362.81 387.88 362.39 387.36 360.03 388.67C360.03 388.67 357.75 390.54 357.05 390.76C359.92 399.99 361.99 411.85 367.59 420.17C367.7 420.17 368.26 420.17 369.26 420.17C370.25 420.17 370.81 420.17 370.92 420.17C376.52 411.85 378.59 399.99 381.46 390.76C380.76 390.54 378.49 388.67 378.49 388.67C376.12 387.36 375.7 387.88 375.7 385.35C375.7 385.08 375.7 383.72 375.7 381.28L369.26 381.28" id="asOjcWj5y"></path><path d="M369.83 403.68C369.83 403.68 367.82 401.03 366.9 399.52C364.09 394.98 360.12 388.76 360.02 388.71C356.59 390.27 344.06 395.18 342.65 396.4C343.79 398.89 345.52 409.15 347.01 420.17C348.49 420.17 355.91 420.17 369.26 420.17C382.6 420.17 390.02 420.17 391.5 420.17C392.99 409.15 394.72 398.89 395.86 396.4C394.46 395.18 381.92 390.27 378.49 388.71C378.4 388.75 375.92 395.16 373.03 399.52C371.83 401.33 369.83 403.68 369.83 403.68" id="efpt8vQ0Z"></path><path d="M386.51 352.57C385.58 357.82 388.69 362.18 393.46 363.12C398.22 364.06 402.82 361.22 403.74 355.98C404.66 350.73 401.56 345.72 396.79 344.78C392.04 343.84 387.43 347.32 386.51 352.57" id="a4S7eAZpRK"></path><path d="M353.3 352.57C354.22 357.82 351.11 362.18 346.35 363.12C341.59 364.06 336.98 361.22 336.06 355.98C335.14 350.73 338.25 345.72 343.01 344.78C347.77 343.84 352.37 347.32 353.3 352.57" id="a1PJDG6I2j"></path><path d="M393.66 321.34C389.01 315.03 381.76 310.88 374.07 310.57C374.06 310.57 373.91 310.57 373.67 310.56C373.67 310.53 373.67 310.29 373.68 310.26C373.68 310.26 371.81 310.33 369.88 310.41C367.96 310.33 366.09 310.26 366.09 310.26C366.09 310.29 366.1 310.53 366.1 310.56C365.85 310.57 365.7 310.57 365.7 310.57C358.01 310.88 350.76 315.03 346.11 321.34C341.46 327.66 340.84 335.62 341.21 343.24C341.48 349 342.51 358.3 342.79 364.06C350.19 391.73 390.08 392.18 396.98 364.06C397.26 358.3 398.28 349 398.56 343.24C398.92 335.62 398.31 327.66 393.66 321.34" id="aG2KA1tB"></path><path d="M346.33 331.95C345.96 332.75 348.07 324.75 352.71 324.62C357.56 324.47 387.71 326.31 389.26 324.29C394.37 330.76 397.75 357.32 398.04 357.26C399.59 356.96 399.83 343.2 399.83 341.69C399.82 334.66 401.86 321.13 389.15 312.69C381.32 307.5 365.15 306.99 356.15 309.92C349.88 311.97 343.87 317.3 341.64 323.51C339.18 330.33 339.25 335.65 340.05 349.16C340.14 350.62 340.31 352.09 340.52 353.54C340.65 354.51 340.78 355.49 341.01 356.44C342.29 361.58 342.41 338.03 346.33 331.95" id="d1zAi5l93P"></path><path d="M344.49 324.8C344.7 325.39 345.47 328.31 355.59 331.74C365.71 335.16 375.42 335.24 374.68 335.08C373.95 334.92 371.75 332.96 371.75 332.96C371.75 332.96 379.01 335.33 384.31 334.84C389.62 334.35 393.45 331.33 392.8 331.33C392.14 331.33 389.21 330.02 389.21 330.02C389.21 330.02 395.82 326.84 399.65 322.43C403.49 318.03 404.71 313.87 404.22 314.27C403.73 314.68 400.47 316.31 400.96 315.74C401.45 315.17 401.86 308.64 401.86 308.64C401.86 308.64 399 310.6 398.18 310.76C397.37 310.93 399.08 305.38 399.08 305.38C399.08 305.38 391.25 306.85 386.76 306.19C382.27 305.54 379.74 304.24 373.13 303.91C366.53 303.58 362.53 305.54 362.53 305.54C362.63 305.33 363.48 303.63 363.59 303.42C363.59 303.42 354.33 306.07 351.88 307.91C349.43 309.74 347.15 313.46 347.15 313.46C347.15 313.46 344.82 312.72 342.95 312.8C341.07 312.89 340.26 313.33 340.26 313.33C340.68 313.47 344.07 314.58 344.5 314.72C344.5 314.72 342.58 315.25 341.15 316.52C339.72 317.78 338.54 319.25 339.15 318.88C339.77 318.52 343.27 318.19 343.27 318.19C343.35 318.63 343.76 320.83 344.49 324.8" id="b5Nh5ToWV"></path><path d="M363.24 394.27C363.59 394.27 365.53 394.58 365.53 394.58C365.62 394.91 366.08 396.56 366.9 399.52L362.01 397.27L363.24 394.27" id="dDSRpsqm3"></path><path d="M360.32 384.59C363.45 390.58 365.18 393.91 365.53 394.58C365.53 394.58 360.17 399.84 360.24 399.61C360.32 399.38 357.84 390.07 358.02 389.57C358.21 389.08 360.32 384.59 360.32 384.59" id="a7ACJVTKC"></path><path d="M376.68 394.27C376.33 394.27 374.39 394.58 374.39 394.58C374.3 394.91 373.84 396.55 373.03 399.52L377.91 397.26L376.68 394.27" id="h56Gzauaw"></path><path d="M379.6 384.58C376.47 390.58 374.74 393.91 374.39 394.58C374.39 394.58 379.75 399.84 379.68 399.61C379.6 399.38 382.08 390.07 381.9 389.57C381.71 389.08 379.6 384.58 379.6 384.58" id="ciCOpknlC"></path><path d="M364.99 344.94C365.77 345.55 366.01 346.88 366.08 348.52C366.36 355.26 362.59 363.51 355.05 363.91C349.35 364.22 345.51 361.54 343.95 355.75C343.53 354.17 343.34 351.99 343.41 350.56C343.47 349.13 344 347.72 344.99 346.51C347.62 343.29 356.54 343.47 360.22 343.71C361.52 343.8 363.93 344.11 364.99 344.94C364.99 344.94 364.99 344.94 364.99 344.94ZM374.78 344.94C375.84 344.11 378.25 343.8 379.55 343.71C383.23 343.47 392.15 343.29 394.78 346.51C395.76 347.72 396.29 349.13 396.36 350.56C396.43 351.99 396.24 354.17 395.81 355.75C394.26 361.54 390.41 364.22 384.72 363.91C377.17 363.51 373.41 355.26 373.69 348.52C373.76 346.88 374 345.55 374.78 344.94C374.78 344.94 374.78 344.94 374.78 344.94ZM367.66 348.64C367.46 348.8 367.18 348.29 367.15 348.13C366.87 346.55 367.25 344.27 365.02 343.86C366 343.86 373.77 343.86 374.74 343.86C372.52 344.27 372.89 346.55 372.61 348.13C372.59 348.29 372.3 348.79 372.1 348.64C371.9 348.5 367.87 348.49 367.66 348.64C367.66 348.64 367.66 348.64 367.66 348.64ZM344.71 345.17C343.5 346.51 342.96 347.66 342.54 349.18C342.54 349.18 341.44 349.22 341.06 349.55C340.69 349.87 340.68 351 341.02 351.25C341.36 351.5 342.47 351.48 342.47 351.48C342.47 359.48 346.78 365.17 355 364.88C359.06 364.73 362.26 363 364.56 359.05C365.86 356.84 366.78 354.08 366.98 352.65C367.19 351.22 367.36 350.5 367.7 350.3C367.97 350.13 369.36 350.11 369.88 350.11C370.41 350.11 371.79 350.13 372.07 350.3C372.41 350.5 372.58 351.22 372.78 352.65C372.99 354.08 373.91 356.84 375.2 359.05C377.51 363 380.71 364.73 384.77 364.88C392.99 365.17 397.3 359.48 397.29 351.48C397.29 351.48 398.41 351.5 398.75 351.25C399.09 351 399.08 349.87 398.71 349.55C398.33 349.22 397.22 349.18 397.22 349.18C396.8 347.66 396.27 346.51 395.06 345.17C393.94 343.92 391.24 343 387.93 342.74C379.72 342.09 360.71 342.14 352.49 342.65C348.89 342.88 345.9 343.84 344.71 345.17C344.71 345.17 344.71 345.17 344.71 345.17" id="b1hCahjaUo"></path><path d="M344.82 346.38C343.81 347.61 343.27 349.05 343.2 350.5C343.14 351.96 343.33 354.18 343.76 355.79C344.62 358.98 346.16 361.25 348.32 362.6C350.15 363.74 352.4 364.24 355.05 364.09C362.73 363.68 366.56 355.29 366.28 348.42C366.21 346.76 365.97 345.41 365.17 344.78C364.09 343.94 361.64 343.62 360.32 343.53C357.27 343.34 350.73 343.18 346.93 344.87C346.05 345.27 345.32 345.76 344.82 346.38" id="f2qJsPja5n"></path><path d="M373.56 348.46C373.28 355.28 377.09 363.62 384.72 364.03C387.36 364.17 389.6 363.67 391.41 362.53C393.55 361.19 395.08 358.94 395.93 355.78C396.36 354.17 396.55 351.97 396.49 350.52C396.42 349.08 395.88 347.65 394.88 346.43C394.39 345.82 393.66 345.33 392.8 344.94C389.03 343.25 382.51 343.41 379.49 343.6C378.17 343.69 375.73 344.01 374.67 344.84C373.88 345.46 373.63 346.8 373.56 348.46" id="b6bD1T5zV"></path><path d="M381.2 371.88C379.16 374.5 375.39 376.26 371.09 376.26C366.79 376.26 363.03 374.5 360.98 371.89C363.48 373.69 366.97 375.51 370.98 375.51C374.99 375.51 378.71 373.69 381.2 371.88" id="a6FqRrEq7c"></path><path d="M365.99 368.84C365.96 368.83 365.96 368.81 365.98 368.77C365.98 368.66 366.04 368.55 366.16 368.45C367.08 366.69 368.88 361.55 369.7 355.89C370.61 355.95 368.81 365.52 368.03 367.8C368.81 367.66 369.77 367.58 370.8 367.58C373.47 367.58 375.63 368.12 375.63 368.77C375.63 369.43 373.47 369.97 370.8 369.97C368.23 369.97 366.13 369.47 365.99 368.84" id="a4jKzCobdi"></path><path d="M273.08 403.78C281.5 403.78 288.37 393.84 288.37 381.66C288.37 369.48 281.5 359.54 273.08 359.54C264.66 359.54 257.79 369.48 257.79 381.66C257.79 393.84 264.66 403.78 273.08 403.78" id="d4QrT4nLcx"></path><path d="M284.75 401.26C285.37 400.8 298.71 390.72 298.71 390.72C304.82 392.74 306.59 410.08 307.21 418.17C306.24 418.17 301.37 418.17 292.6 418.17L284.75 401.26" id="dEYncLcyY"></path><path d="M272.23 379.28L265.78 379.28C265.78 381.72 265.78 383.08 265.78 383.35C265.78 385.49 256.04 388.25 254.02 388.9C247.97 399.43 265.58 405.54 271.18 413.87C271.29 413.87 271.84 413.87 272.84 413.87C273.84 413.87 274.39 413.87 274.51 413.87C280.11 405.54 295.88 399.89 290.79 388.9C288.76 388.25 278.67 385.49 278.68 383.35C278.68 383.08 278.68 381.72 278.68 379.28L272.23 379.28" id="baX3azQI6"></path><path d="M258.62 402.56C258.01 402.1 246.1 390.72 246.1 390.72C239.98 392.74 238.22 410.08 237.59 418.17C238.57 418.17 243.44 418.17 252.21 418.17L258.62 402.56" id="a1Sf0f4aMV"></path><path d="M254.02 388.9C252.06 389.28 250.14 389.65 248.61 390.01C248.6 390.01 248.58 390.01 248.53 390.02L248.46 390.04L248.39 390.06L248.32 390.08L248.25 390.09L248.18 390.11L248.04 390.14L247.97 390.16L247.9 390.18L247.84 390.19L247.83 390.19L247.77 390.21L247.71 390.23L247.64 390.24L247.58 390.26L247.52 390.28L247.45 390.29L247.28 390.34L247.27 390.34L247.21 390.36L247.15 390.38L247.09 390.39L247.04 390.41L246.98 390.42L246.93 390.44L246.88 390.45L246.87 390.46L246.82 390.47L246.77 390.49L246.71 390.5L246.71 390.5L246.66 390.52L246.56 390.55L246.53 390.57L246.51 390.57L246.37 390.62L246.35 390.63L246.33 390.63L246.24 390.67L246.2 390.68L246.16 390.69L246.06 390.74C246.04 390.75 246.03 390.75 246.02 390.75C245.98 390.77 245.94 390.79 245.91 390.8C245.91 390.8 245.91 390.8 245.9 390.8C245.9 390.81 245.9 390.81 245.9 390.81C245.86 390.82 245.82 390.84 245.79 390.86C245.79 390.86 245.78 390.86 245.78 390.86C245.75 390.88 245.72 390.9 245.69 390.91C245.69 390.92 245.68 390.92 245.68 390.92C245.67 390.92 245.67 390.92 245.67 390.92C245.64 390.94 245.62 390.96 245.59 390.98C245.59 390.98 245.59 390.98 245.59 390.98C245.58 390.98 245.58 390.98 245.58 390.98C245.56 391 245.53 391.02 245.51 391.04C246.13 392.38 246.95 396.99 247.81 402.68C246.94 408.49 243.54 412.66 245.99 418.17C246.25 418.17 247.58 418.17 249.98 418.17L272.23 418.17L272.4 418.17L272.58 418.17L294.82 418.17C297.22 418.17 298.55 418.17 298.82 418.17C301.27 412.66 297.86 408.49 297 402.68C297.86 396.99 298.68 392.38 299.29 391.04C299.27 391.02 299.25 391 299.22 390.98C299.22 390.98 299.22 390.98 299.22 390.98C299.21 390.98 299.21 390.98 299.21 390.98C299.19 390.96 299.16 390.94 299.13 390.92C299.13 390.92 299.13 390.92 299.13 390.92C299.12 390.92 299.12 390.92 299.12 390.91C299.09 390.9 299.06 390.88 299.03 390.86C299.03 390.86 299.02 390.86 299.02 390.86C298.98 390.84 298.95 390.82 298.91 390.81C298.91 390.81 298.9 390.81 298.9 390.8L298.9 390.8L298.78 390.75L298.75 390.74L298.64 390.69L298.61 390.68L298.56 390.67L298.48 390.63L298.45 390.63L298.43 390.62L298.29 390.57L298.28 390.57L298.24 390.55L298.14 390.52L298.09 390.5L298.09 390.5L298.04 390.49L297.99 390.47L297.93 390.46L297.92 390.45L297.88 390.44L297.82 390.42L297.77 390.41L297.71 390.39L297.65 390.38L297.59 390.36L297.54 390.34L297.52 390.34L297.35 390.29L297.29 390.28L297.23 390.26L297.16 390.24L297.1 390.23L297.03 390.21L296.97 390.19L296.97 390.19L296.9 390.18L296.83 390.16L296.77 390.14L296.63 390.11L296.56 390.09L296.49 390.08L296.42 390.06L296.35 390.04L296.27 390.02C296.23 390.01 296.2 390.01 296.2 390.01C294.67 389.65 292.74 389.28 290.79 388.9C290.98 389.69 291.08 390.5 291.08 391.33C291.08 398.89 282.72 405.01 272.4 405.01C262.09 405.01 253.73 398.89 253.73 391.33C253.73 390.5 253.83 389.69 254.02 388.9" id="b1KTeEehSj"></path><path d="M253.28 349.14C254.34 353.94 252.22 357.94 248.58 358.8C244.94 359.66 241.17 357.06 240.11 352.26C239.04 347.45 241.12 342.86 244.76 342C248.39 341.13 252.21 344.33 253.28 349.14" id="d51vYT0tZP"></path><path d="M292.6 349.14C291.53 353.94 293.65 357.94 297.29 358.8C300.93 359.66 304.7 357.06 305.77 352.26C306.84 347.45 304.76 342.86 301.12 342C297.48 341.13 293.67 344.33 292.6 349.14" id="bdahIgbSY"></path><path d="M272.94 308.4C272.89 308.41 272.86 308.41 272.86 308.41C270.93 308.33 269.06 308.26 269.06 308.26C269.06 308.29 269.07 308.53 269.07 308.56C268.82 308.57 268.67 308.57 268.67 308.57C260.98 308.88 253.73 313.03 249.08 319.34C244.43 325.66 243.81 333.62 244.18 341.24C245.12 360.83 256.09 382.82 272.94 382.98C289.78 382.82 300.75 360.83 301.7 341.24C302.06 333.62 301.44 325.66 296.79 319.34C292.15 313.03 284.9 308.88 277.2 308.57C277.2 308.57 277.05 308.57 276.8 308.56C276.81 308.53 276.81 308.29 276.81 308.26C276.81 308.26 274.95 308.33 273.02 308.41C273.01 308.41 272.99 308.41 272.94 308.4" id="asIbfEIpF"></path><path d="M284.91 315.99C284.68 317.07 284.88 322.84 291.52 331.67C298.15 340.51 298.67 341.28 298.67 341.28C298.67 341.28 298.65 356.61 299.54 354.73C300.42 352.84 302.16 341.28 302.19 340.58C302.22 339.88 303.43 333.13 301.74 326.22C300.05 319.3 297.92 316.69 294.99 315.52C292.05 314.36 284.91 315.99 284.91 315.99" id="a303uCQ7cx"></path><path d="M247.94 334.67C246.78 335.98 243.07 339.1 243.07 339.1C244.17 344.35 245.12 354.07 246.38 354.86C246.91 353.43 247.4 343.85 247.94 334.67" id="cSdpHBSy3"></path><path d="M298.67 341.28C298.97 336.23 301.56 324.7 300.29 321.55C296.63 312.48 289.92 308.8 278.66 307.68C275.2 307.33 272.32 307.64 272.32 307.64C278.78 318.3 284.23 332.47 298.67 341.28" id="bl9wYC6pS"></path><path d="M287.81 318.74C285.53 332.98 255.48 328.39 245.59 345.52C234.58 328.86 251.45 294.74 280.81 307.93C281.27 308.65 283.61 312.25 287.81 318.74" id="a2f3REeBQv"></path><path d="M268.33 361.9C268.31 361.89 268.3 361.87 268.32 361.83C268.32 361.72 268.39 361.61 268.51 361.51C269.42 359.75 271.22 354.61 272.05 348.95C272.95 349.01 271.15 358.58 270.38 360.86C271.16 360.72 272.12 360.64 273.15 360.64C275.81 360.64 277.97 361.18 277.97 361.83C277.97 362.49 275.81 363.03 273.15 363.03C270.58 363.03 268.47 362.53 268.33 361.9" id="ieCYt7a24"></path><path d="M282.46 367C280.41 369.62 276.65 371.37 272.35 371.37C268.05 371.37 264.29 369.62 262.24 367C264.74 368.8 268.23 370.62 272.24 370.62C276.25 370.62 279.97 368.8 282.46 367" id="a6sYwjxcNf"></path><path d="M268.34 342.36C269.12 342.97 269.36 344.3 269.43 345.93C269.71 352.68 265.95 360.93 258.4 361.33C252.71 361.63 248.86 358.95 247.31 353.17C246.88 351.59 246.69 349.41 246.76 347.98C246.83 346.55 247.36 345.13 248.34 343.92C250.97 340.71 259.89 340.89 263.57 341.13C264.87 341.21 267.28 341.53 268.34 342.36C268.34 342.36 268.34 342.36 268.34 342.36ZM278.13 342.36C279.19 341.53 281.6 341.21 282.9 341.13C286.59 340.89 295.5 340.71 298.13 343.92C299.12 345.13 299.65 346.55 299.71 347.98C299.78 349.41 299.59 351.59 299.17 353.17C297.61 358.95 293.77 361.63 288.07 361.33C280.53 360.93 276.76 352.68 277.04 345.93C277.11 344.3 277.35 342.97 278.13 342.36C278.13 342.36 278.13 342.36 278.13 342.36ZM271.02 346.06C270.82 346.22 270.53 345.71 270.51 345.55C270.23 343.96 270.6 341.69 268.38 341.28C269.35 341.28 277.12 341.28 278.1 341.28C275.87 341.69 276.25 343.96 275.97 345.55C275.94 345.71 275.66 346.21 275.46 346.06C275.26 345.92 271.22 345.91 271.02 346.06C271.02 346.06 271.02 346.06 271.02 346.06ZM248.06 342.59C246.85 343.93 246.32 345.08 245.9 346.6C245.9 346.6 244.79 346.64 244.41 346.96C244.04 347.29 244.03 348.42 244.37 348.67C244.71 348.91 245.83 348.9 245.83 348.9C245.82 356.89 250.13 362.59 258.35 362.29C262.41 362.15 265.61 360.42 267.92 356.47C269.21 354.25 270.13 351.49 270.34 350.06C270.54 348.63 270.71 347.92 271.05 347.71C271.33 347.55 272.72 347.53 273.24 347.53C273.76 347.53 275.15 347.55 275.42 347.71C275.76 347.92 275.93 348.63 276.14 350.06C276.34 351.49 277.26 354.25 278.56 356.47C280.87 360.42 284.07 362.15 288.12 362.29C296.34 362.59 300.66 356.89 300.65 348.9C300.65 348.9 301.76 348.91 302.1 348.67C302.44 348.42 302.43 347.29 302.06 346.96C301.69 346.64 300.58 346.6 300.58 346.6C300.16 345.08 299.62 343.93 298.42 342.59C297.29 341.34 294.59 340.42 291.28 340.16C283.08 339.51 264.06 339.56 255.84 340.07C252.25 340.3 249.26 341.25 248.06 342.59C248.06 342.59 248.06 342.59 248.06 342.59" id="d4K6A3wabQ"></path><path d="M248.17 343.79C247.17 345.02 246.63 346.46 246.56 347.92C246.49 349.38 246.68 351.6 247.11 353.21C247.97 356.4 249.52 358.66 251.68 360.02C253.5 361.16 255.76 361.65 258.41 361.51C266.09 361.1 269.92 352.7 269.63 345.84C269.56 344.17 269.32 342.82 268.52 342.2C267.45 341.36 264.99 341.04 263.67 340.95C260.63 340.75 254.08 340.59 250.29 342.29C249.41 342.68 248.68 343.18 248.17 343.79" id="h2eeFjJcOQ"></path><path d="M276.92 345.87C276.64 352.69 280.44 361.03 288.07 361.44C290.71 361.58 292.96 361.09 294.77 359.95C296.91 358.6 298.44 356.36 299.29 353.19C299.72 351.59 299.91 349.39 299.84 347.94C299.77 346.49 299.24 345.06 298.24 343.84C297.74 343.23 297.02 342.74 296.15 342.35C292.39 340.66 285.87 340.82 282.84 341.02C281.53 341.1 279.09 341.42 278.02 342.26C277.23 342.88 276.99 344.22 276.92 345.87" id="a1m9FRPmIc"></path></defs><g><g><g><use xlink:href="#btzsKuhz0" opacity="1" fill="#76726e" fill-opacity="1"></use><g><use xlink:href="#btzsKuhz0" opacity="1" fill-opacity="0" stroke="#000000" stroke-width="1" stroke-opacity="0"></use></g></g><g><use xlink:href="#a2G2htt3yH" opacity="1" fill="#787472" fill-opacity="1"></use><g><use xlink:href="#a2G2htt3yH" opacity="1" fill-opacity="0" stroke="#000000" stroke-width="1" stroke-opacity="0"></use></g></g><g><use xlink:href="#bfjeRfx6J" opacity="1" fill="#787472" fill-opacity="1"></use><g><use xlink:href="#bfjeRfx6J" opacity="1" fill-opacity="0" stroke="#000000" stroke-width="1" stroke-opacity="0"></use></g></g><g><use xlink:href="#asOjcWj5y" opacity="1" fill="#f4ad69" fill-opacity="1"></use><g><use xlink:href="#asOjcWj5y" opacity="1" fill-opacity="0" stroke="#000000" stroke-width="1" stroke-opacity="0"></use></g></g><g><use xlink:href="#efpt8vQ0Z" opacity="1" fill="#7f7974" fill-opacity="1"></use><g><use xlink:href="#efpt8vQ0Z" opacity="1" fill-opacity="0" stroke="#000000" stroke-width="1" stroke-opacity="0"></use></g></g><g><use xlink:href="#a4S7eAZpRK" opacity="1" fill="#f5b870" fill-opacity="1"></use><g><use xlink:href="#a4S7eAZpRK" opacity="1" fill-opacity="0" stroke="#000000" stroke-width="1" stroke-opacity="0"></use></g></g><g><use xlink:href="#a1PJDG6I2j" opacity="1" fill="#f5b870" fill-opacity="1"></use><g><use xlink:href="#a1PJDG6I2j" opacity="1" fill-opacity="0" stroke="#000000" stroke-width="1" stroke-opacity="0"></use></g></g><g><use xlink:href="#aG2KA1tB" opacity="1" fill="#f7c386" fill-opacity="1"></use><g><use xlink:href="#aG2KA1tB" opacity="1" fill-opacity="0" stroke="#000000" stroke-width="1" stroke-opacity="0"></use></g></g><g><use xlink:href="#d1zAi5l93P" opacity="1" fill="#392017" fill-opacity="1"></use><g><use xlink:href="#d1zAi5l93P" opacity="1" fill-opacity="0" stroke="#000000" stroke-width="1" stroke-opacity="0"></use></g></g><g><use xlink:href="#b5Nh5ToWV" opacity="1" fill="#392017" fill-opacity="1"></use><g><use xlink:href="#b5Nh5ToWV" opacity="1" fill-opacity="0" stroke="#000000" stroke-width="1" stroke-opacity="0"></use></g></g><g><use xlink:href="#dDSRpsqm3" opacity="1" fill="#6d6764" fill-opacity="1"></use><g><use xlink:href="#dDSRpsqm3" opacity="1" fill-opacity="0" stroke="#000000" stroke-width="1" stroke-opacity="0"></use></g></g><g><use xlink:href="#a7ACJVTKC" opacity="1" fill="#9a958e" fill-opacity="1"></use><g><use xlink:href="#a7ACJVTKC" opacity="1" fill-opacity="0" stroke="#000000" stroke-width="1" stroke-opacity="0"></use></g></g><g><use xlink:href="#h56Gzauaw" opacity="1" fill="#6d6764" fill-opacity="1"></use><g><use xlink:href="#h56Gzauaw" opacity="1" fill-opacity="0" stroke="#000000" stroke-width="1" stroke-opacity="0"></use></g></g><g><use xlink:href="#ciCOpknlC" opacity="1" fill="#9a958e" fill-opacity="1"></use><g><use xlink:href="#ciCOpknlC" opacity="1" fill-opacity="0" stroke="#000000" stroke-width="1" stroke-opacity="0"></use></g></g><g><use xlink:href="#b1hCahjaUo" opacity="1" fill="#383434" fill-opacity="1"></use><g><use xlink:href="#b1hCahjaUo" opacity="1" fill-opacity="0" stroke="#000000" stroke-width="1" stroke-opacity="0"></use></g></g><g><use xlink:href="#f2qJsPja5n" opacity="1" fill="#525153" fill-opacity="1"></use><g><use xlink:href="#f2qJsPja5n" opacity="1" fill-opacity="0" stroke="#000000" stroke-width="1" stroke-opacity="0"></use></g></g><g><use xlink:href="#b6bD1T5zV" opacity="1" fill="#525153" fill-opacity="1"></use><g><use xlink:href="#b6bD1T5zV" opacity="1" fill-opacity="0" stroke="#000000" stroke-width="1" stroke-opacity="0"></use></g></g><g><use xlink:href="#a6FqRrEq7c" opacity="1" fill="#d5724d" fill-opacity="1"></use><g><use xlink:href="#a6FqRrEq7c" opacity="1" fill-opacity="0" stroke="#000000" stroke-width="1" stroke-opacity="0"></use></g></g><g><use xlink:href="#a4jKzCobdi" opacity="1" fill="#e3aa6a" fill-opacity="1"></use><g><use xlink:href="#a4jKzCobdi" opacity="1" fill-opacity="0" stroke="#000000" stroke-width="1" stroke-opacity="0"></use></g></g></g><g><g><use xlink:href="#d4QrT4nLcx" opacity="1" fill="#383434" fill-opacity="1"></use><g><use xlink:href="#d4QrT4nLcx" opacity="1" fill-opacity="0" stroke="#000000" stroke-width="1" stroke-opacity="0"></use></g></g><g><use xlink:href="#dEYncLcyY" opacity="1" fill="#467c6e" fill-opacity="1"></use><g><use xlink:href="#dEYncLcyY" opacity="1" fill-opacity="0" stroke="#000000" stroke-width="1" stroke-opacity="0"></use></g></g><g><use xlink:href="#baX3azQI6" opacity="1" fill="#f4ad69" fill-opacity="1"></use><g><use xlink:href="#baX3azQI6" opacity="1" fill-opacity="0" stroke="#000000" stroke-width="1" stroke-opacity="0"></use></g></g><g><use xlink:href="#a1Sf0f4aMV" opacity="1" fill="#467c6e" fill-opacity="1"></use><g><use xlink:href="#a1Sf0f4aMV" opacity="1" fill-opacity="0" stroke="#000000" stroke-width="1" stroke-opacity="0"></use></g></g><g><use xlink:href="#b1KTeEehSj" opacity="1" fill="#458b79" fill-opacity="1"></use><g><use xlink:href="#b1KTeEehSj" opacity="1" fill-opacity="0" stroke="#000000" stroke-width="1" stroke-opacity="0"></use></g></g><g><use xlink:href="#d51vYT0tZP" opacity="1" fill="#f5b870" fill-opacity="1"></use><g><use xlink:href="#d51vYT0tZP" opacity="1" fill-opacity="0" stroke="#000000" stroke-width="1" stroke-opacity="0"></use></g></g><g><use xlink:href="#bdahIgbSY" opacity="1" fill="#f5b870" fill-opacity="1"></use><g><use xlink:href="#bdahIgbSY" opacity="1" fill-opacity="0" stroke="#000000" stroke-width="1" stroke-opacity="0"></use></g></g><g><use xlink:href="#asIbfEIpF" opacity="1" fill="#f7c386" fill-opacity="1"></use><g><use xlink:href="#asIbfEIpF" opacity="1" fill-opacity="0" stroke="#000000" stroke-width="1" stroke-opacity="0"></use></g></g><g><use xlink:href="#a303uCQ7cx" opacity="1" fill="#383434" fill-opacity="1"></use><g><use xlink:href="#a303uCQ7cx" opacity="1" fill-opacity="0" stroke="#000000" stroke-width="1" stroke-opacity="0"></use></g></g><g><use xlink:href="#cSdpHBSy3" opacity="1" fill="#383434" fill-opacity="1"></use><g><use xlink:href="#cSdpHBSy3" opacity="1" fill-opacity="0" stroke="#000000" stroke-width="1" stroke-opacity="0"></use></g></g><g><use xlink:href="#bl9wYC6pS" opacity="1" fill="#383434" fill-opacity="1"></use><g><use xlink:href="#bl9wYC6pS" opacity="1" fill-opacity="0" stroke="#000000" stroke-width="1" stroke-opacity="0"></use></g></g><g><use xlink:href="#a2f3REeBQv" opacity="1" fill="#383434" fill-opacity="1"></use><g><use xlink:href="#a2f3REeBQv" opacity="1" fill-opacity="0" stroke="#000000" stroke-width="1" stroke-opacity="0"></use></g></g><g><use xlink:href="#ieCYt7a24" opacity="1" fill="#e3aa6a" fill-opacity="1"></use><g><use xlink:href="#ieCYt7a24" opacity="1" fill-opacity="0" stroke="#000000" stroke-width="1" stroke-opacity="0"></use></g></g><g><use xlink:href="#a6sYwjxcNf" opacity="1" fill="#d5724d" fill-opacity="1"></use><g><use xlink:href="#a6sYwjxcNf" opacity="1" fill-opacity="0" stroke="#000000" stroke-width="1" stroke-opacity="0"></use></g></g><g><g><use xlink:href="#d4K6A3wabQ" opacity="1" fill="#383434" fill-opacity="1"></use><g><use xlink:href="#d4K6A3wabQ" opacity="1" fill-opacity="0" stroke="#000000" stroke-width="1" stroke-opacity="0"></use></g></g><g><use xlink:href="#h2eeFjJcOQ" opacity="1" fill="#525153" fill-opacity="1"></use><g><use xlink:href="#h2eeFjJcOQ" opacity="1" fill-opacity="0" stroke="#000000" stroke-width="1" stroke-opacity="0"></use></g></g><g><use xlink:href="#a1m9FRPmIc" opacity="1" fill="#525153" fill-opacity="1"></use><g><use xlink:href="#a1m9FRPmIc" opacity="1" fill-opacity="0" stroke="#000000" stroke-width="1" stroke-opacity="0"></use></g></g></g></g></g></svg>