<?xml version="1.0" encoding="UTF-8" standalone="no"?>
<!DOCTYPE svg PUBLIC "-//W3C//DTD SVG 1.1//EN" "http://www.w3.org/Graphics/SVG/1.1/DTD/svg11.dtd">
<svg version="1.1" xmlns="http://www.w3.org/2000/svg" xmlns:xlink="http://www.w3.org/1999/xlink" preserveAspectRatio="xMidYMid meet" viewBox="140.68726918948516 301.87457957473663 69.61564382306122 113.20266528990686" width="69.62" height="113.2"><defs><path d="M176.17 400.68C184.59 400.68 191.46 390.75 191.46 378.57C191.46 366.39 184.59 356.45 176.17 356.45C167.75 356.45 160.88 366.39 160.88 378.57C160.88 390.75 167.75 400.68 176.17 400.68" id="d1ys3HR5S3"></path><path d="M187.84 398.17C188.46 397.71 201.8 387.63 201.8 387.63C207.92 389.65 209.68 406.99 210.3 415.08C209.33 415.08 204.46 415.08 195.69 415.08L187.84 398.17" id="l3K9Jexo4K"></path><path d="M175.32 376.19L168.87 376.19C168.87 378.63 168.87 379.99 168.87 380.26C168.88 382.4 159.13 385.16 157.11 385.81C151.06 396.34 168.67 402.45 174.27 410.77C174.38 410.77 174.94 410.77 175.93 410.77C176.93 410.77 177.49 410.77 177.6 410.77C183.2 402.45 198.97 396.8 193.88 385.81C191.86 385.16 181.76 382.4 181.77 380.26C181.77 379.99 181.77 378.63 181.77 376.19L175.32 376.19" id="knYLbBjOx"></path><path d="M161.72 399.46C161.1 399 149.19 387.63 149.19 387.63C143.07 389.65 141.31 406.99 140.69 415.08C141.66 415.08 146.53 415.08 155.3 415.08L161.72 399.46" id="b7srWaOkJ"></path><path d="M157.11 385.81C155.15 386.19 153.23 386.56 151.7 386.91C151.69 386.92 151.67 386.92 151.63 386.93L151.55 386.95L151.48 386.97L151.41 386.98L151.34 387L151.27 387.02L151.13 387.05L151.06 387.07L151 387.08L150.93 387.1L150.93 387.1L150.86 387.12L150.8 387.13L150.73 387.15L150.67 387.17L150.61 387.18L150.55 387.2L150.38 387.25L150.36 387.25L150.3 387.27L150.24 387.28L150.19 387.3L150.13 387.31L150.07 387.33L150.02 387.35L149.97 387.36L149.96 387.36L149.91 387.38L149.86 387.4L149.81 387.41L149.81 387.41L149.76 387.43L149.66 387.46L149.62 387.47L149.61 387.48L149.47 387.52L149.44 387.53L149.42 387.54L149.33 387.57L149.29 387.59L149.26 387.6L149.15 387.64C149.13 387.65 149.12 387.66 149.12 387.66C149.08 387.68 149.04 387.69 149 387.71C149 387.71 149 387.71 149 387.71C148.99 387.71 148.99 387.71 148.99 387.71C148.95 387.73 148.92 387.75 148.88 387.77C148.88 387.77 148.87 387.77 148.87 387.77C148.84 387.79 148.81 387.8 148.78 387.82C148.78 387.82 148.78 387.82 148.77 387.83C148.77 387.83 148.76 387.83 148.76 387.83C148.74 387.85 148.71 387.87 148.68 387.88C148.68 387.88 148.68 387.88 148.68 387.89C148.68 387.89 148.68 387.89 148.68 387.89C148.65 387.91 148.63 387.93 148.61 387.94C149.22 389.29 150.04 393.9 150.9 399.59C150.03 405.39 146.63 409.56 149.08 415.08C149.35 415.08 150.68 415.08 153.07 415.08L175.32 415.08L175.5 415.08L175.67 415.08L197.92 415.08C200.31 415.08 201.65 415.08 201.91 415.08C204.36 409.56 200.96 405.39 200.09 399.59C200.95 393.9 201.77 389.29 202.39 387.94C202.36 387.92 202.34 387.91 202.31 387.89C202.31 387.89 202.31 387.89 202.31 387.89C202.31 387.88 202.31 387.88 202.31 387.88C202.28 387.87 202.25 387.85 202.23 387.83C202.23 387.83 202.22 387.83 202.22 387.83C202.21 387.82 202.21 387.82 202.21 387.82C202.18 387.8 202.15 387.79 202.12 387.77C202.12 387.77 202.11 387.77 202.11 387.77C202.08 387.75 202.04 387.73 202 387.71C202 387.71 202 387.71 202 387.71L201.99 387.71L201.88 387.66L201.84 387.64L201.74 387.6L201.7 387.59L201.66 387.57L201.57 387.54L201.55 387.53L201.52 387.52L201.38 387.48L201.37 387.47L201.34 387.46L201.24 387.43L201.19 387.41L201.18 387.41L201.13 387.4L201.08 387.38L201.03 387.36L201.02 387.36L200.97 387.35L200.92 387.33L200.86 387.31L200.8 387.3L200.75 387.28L200.69 387.27L200.63 387.25L200.61 387.25L200.45 387.2L200.38 387.18L200.32 387.17L200.26 387.15L200.19 387.13L200.13 387.12L200.07 387.1L200.06 387.1L199.99 387.08L199.93 387.07L199.86 387.05L199.72 387.02L199.65 387L199.58 386.98L199.51 386.97L199.44 386.95L199.37 386.93C199.32 386.92 199.3 386.92 199.29 386.91C197.76 386.56 195.84 386.19 193.88 385.81C194.07 386.6 194.17 387.41 194.17 388.24C194.17 395.79 185.81 401.92 175.5 401.92C165.18 401.92 156.82 395.79 156.82 388.24C156.82 387.41 156.92 386.6 157.11 385.81" id="g2J66MO16"></path><path d="M156.37 346.04C157.44 350.85 155.31 354.85 151.67 355.71C148.04 356.57 144.27 353.97 143.2 349.16C142.13 344.36 144.21 339.76 147.85 338.9C151.49 338.04 155.3 341.24 156.37 346.04" id="a1SYqgaRge"></path><path d="M195.69 346.04C194.62 350.85 196.75 354.85 200.38 355.71C204.02 356.57 207.79 353.97 208.86 349.16C209.93 344.36 207.85 339.76 204.21 338.9C200.57 338.04 196.76 341.24 195.69 346.04" id="a5U5YQiFZ"></path><path d="M176.03 305.31C175.98 305.31 175.95 305.31 175.95 305.32C174.02 305.24 172.16 305.16 172.16 305.16C172.16 305.19 172.16 305.44 172.16 305.47C171.92 305.47 171.77 305.48 171.77 305.48C164.07 305.79 156.82 309.93 152.18 316.25C147.52 322.57 146.91 330.53 147.27 338.15C148.21 357.74 159.19 379.73 176.03 379.89C192.88 379.73 203.85 357.74 204.79 338.15C205.15 330.53 204.54 322.57 199.89 316.25C195.24 309.93 187.99 305.79 180.29 305.48C180.29 305.48 180.14 305.47 179.9 305.47C179.9 305.44 179.9 305.19 179.91 305.16C179.91 305.16 178.04 305.24 176.11 305.32C176.11 305.31 176.08 305.31 176.03 305.31" id="a5ZlWBIEx1"></path><path d="M188 312.9C187.77 313.98 187.98 319.74 194.61 328.58C201.25 337.42 201.76 338.19 201.76 338.19C201.76 338.19 201.74 353.52 202.63 351.64C203.51 349.75 205.25 338.19 205.28 337.49C205.31 336.78 206.53 330.04 204.83 323.12C203.14 316.21 201.01 313.6 198.08 312.43C195.15 311.27 188 312.9 188 312.9" id="gT1aT0FVz"></path><path d="M151.03 331.58C149.88 332.88 146.16 336.01 146.16 336.01C147.26 341.26 148.21 350.97 149.47 351.77C150 350.34 150.49 340.76 151.03 331.58" id="b1zuDQ2NGC"></path><path d="M201.76 338.19C202.06 333.14 204.65 321.61 203.38 318.46C199.72 309.38 193.01 305.71 181.75 304.59C178.3 304.24 175.41 304.55 175.41 304.55C181.87 315.21 187.33 329.37 201.76 338.19" id="b2iOlrJ9mt"></path><path d="M190.9 315.64C188.62 329.89 158.57 325.3 148.69 342.42C137.67 325.77 154.54 291.65 183.9 304.84C184.37 305.56 186.7 309.16 190.9 315.64" id="d1502HU3p"></path><path d="M171.42 358.81C171.4 358.8 171.39 358.78 171.42 358.74C171.42 358.63 171.48 358.52 171.6 358.42C172.51 356.65 174.32 351.51 175.14 345.86C176.05 345.91 174.24 355.48 173.47 357.77C174.25 357.63 175.21 357.55 176.24 357.55C178.9 357.55 181.06 358.08 181.06 358.74C181.06 359.4 178.9 359.93 176.24 359.93C173.67 359.93 171.57 359.44 171.42 358.81" id="fgE9eJtHS"></path><path d="M185.55 363.9C183.51 366.52 179.75 368.28 175.44 368.28C171.14 368.28 167.38 366.52 165.34 363.9C167.83 365.71 171.32 367.53 175.33 367.53C179.34 367.53 183.06 365.71 185.55 363.9" id="c5M2ooo25k"></path><path d="M171.43 339.26C172.22 339.88 172.46 341.2 172.52 342.84C172.8 349.58 169.04 357.83 161.49 358.24C155.8 358.54 151.95 355.86 150.4 350.08C149.97 348.49 149.79 346.31 149.85 344.88C149.92 343.45 150.45 342.04 151.44 340.83C154.07 337.61 162.98 337.8 166.66 338.04C167.97 338.12 170.38 338.44 171.43 339.26C171.43 339.26 171.43 339.26 171.43 339.26ZM181.23 339.26C182.28 338.44 184.69 338.12 186 338.04C189.68 337.8 198.59 337.61 201.22 340.83C202.21 342.04 202.74 343.45 202.81 344.88C202.87 346.31 202.69 348.49 202.26 350.08C200.71 355.86 196.86 358.54 191.17 358.24C183.62 357.83 179.86 349.58 180.14 342.84C180.21 341.2 180.44 339.88 181.23 339.26C181.23 339.26 181.23 339.26 181.23 339.26ZM174.11 342.97C173.91 343.12 173.63 342.62 173.6 342.46C173.32 340.87 173.69 338.6 171.47 338.18C172.44 338.18 180.22 338.18 181.19 338.18C178.97 338.6 179.34 340.87 179.06 342.46C179.03 342.62 178.75 343.11 178.55 342.97C178.35 342.82 174.31 342.81 174.11 342.97C174.11 342.97 174.11 342.97 174.11 342.97ZM151.15 339.49C149.95 340.84 149.41 341.99 148.99 343.5C148.99 343.5 147.88 343.55 147.51 343.87C147.13 344.19 147.12 345.33 147.47 345.57C147.81 345.82 148.92 345.8 148.92 345.8C148.91 353.8 153.22 359.5 161.45 359.2C165.5 359.05 168.7 357.32 171.01 353.38C172.3 351.16 173.23 348.4 173.43 346.97C173.63 345.54 173.8 344.82 174.15 344.62C174.42 344.46 175.81 344.43 176.33 344.43C176.85 344.43 178.24 344.46 178.52 344.62C178.86 344.82 179.03 345.54 179.23 346.97C179.43 348.4 180.36 351.16 181.65 353.38C183.96 357.32 187.16 359.05 191.22 359.2C199.44 359.5 203.75 353.8 203.74 345.8C203.74 345.8 204.85 345.82 205.2 345.57C205.54 345.33 205.53 344.19 205.15 343.87C204.78 343.55 203.67 343.5 203.67 343.5C203.25 341.99 202.71 340.84 201.51 339.49C200.39 338.25 197.68 337.33 194.37 337.06C186.17 336.42 167.16 336.46 158.93 336.98C155.34 337.2 152.35 338.16 151.15 339.49C151.15 339.49 151.15 339.49 151.15 339.49" id="a3UnsrGEPm"></path><path d="M151.26 340.7C150.26 341.93 149.72 343.37 149.65 344.83C149.58 346.28 149.77 348.5 150.21 350.11C151.06 353.31 152.61 355.57 154.77 356.92C156.59 358.07 158.85 358.56 161.5 358.42C169.18 358.01 173.01 349.61 172.72 342.75C172.65 341.08 172.41 339.73 171.62 339.11C170.54 338.26 168.09 337.94 166.76 337.86C163.72 337.66 157.17 337.5 153.38 339.19C152.5 339.59 151.77 340.08 151.26 340.7" id="aMiO83FCY"></path><path d="M180.01 342.78C179.73 349.6 183.53 357.94 191.16 358.35C193.8 358.49 196.05 358 197.86 356.86C200 355.51 201.53 353.27 202.38 350.1C202.81 348.5 203 346.29 202.93 344.85C202.86 343.4 202.33 341.97 201.33 340.75C200.83 340.14 200.11 339.65 199.24 339.26C195.48 337.57 188.96 337.73 185.94 337.93C184.62 338.01 182.18 338.33 181.11 339.17C180.32 339.79 180.08 341.13 180.01 342.78" id="npoNynJK6"></path></defs><g><g><g><use xlink:href="#d1ys3HR5S3" opacity="1" fill="#383434" fill-opacity="1"></use><g><use xlink:href="#d1ys3HR5S3" opacity="1" fill-opacity="0" stroke="#000000" stroke-width="1" stroke-opacity="0"></use></g></g><g><use xlink:href="#l3K9Jexo4K" opacity="1" fill="#467c6e" fill-opacity="1"></use><g><use xlink:href="#l3K9Jexo4K" opacity="1" fill-opacity="0" stroke="#000000" stroke-width="1" stroke-opacity="0"></use></g></g><g><use xlink:href="#knYLbBjOx" opacity="1" fill="#f4ad69" fill-opacity="1"></use><g><use xlink:href="#knYLbBjOx" opacity="1" fill-opacity="0" stroke="#000000" stroke-width="1" stroke-opacity="0"></use></g></g><g><use xlink:href="#b7srWaOkJ" opacity="1" fill="#467c6e" fill-opacity="1"></use><g><use xlink:href="#b7srWaOkJ" opacity="1" fill-opacity="0" stroke="#000000" stroke-width="1" stroke-opacity="0"></use></g></g><g><use xlink:href="#g2J66MO16" opacity="1" fill="#458b79" fill-opacity="1"></use><g><use xlink:href="#g2J66MO16" opacity="1" fill-opacity="0" stroke="#000000" stroke-width="1" stroke-opacity="0"></use></g></g><g><use xlink:href="#a1SYqgaRge" opacity="1" fill="#f5b870" fill-opacity="1"></use><g><use xlink:href="#a1SYqgaRge" opacity="1" fill-opacity="0" stroke="#000000" stroke-width="1" stroke-opacity="0"></use></g></g><g><use xlink:href="#a5U5YQiFZ" opacity="1" fill="#f5b870" fill-opacity="1"></use><g><use xlink:href="#a5U5YQiFZ" opacity="1" fill-opacity="0" stroke="#000000" stroke-width="1" stroke-opacity="0"></use></g></g><g><use xlink:href="#a5ZlWBIEx1" opacity="1" fill="#f7c386" fill-opacity="1"></use><g><use xlink:href="#a5ZlWBIEx1" opacity="1" fill-opacity="0" stroke="#000000" stroke-width="1" stroke-opacity="0"></use></g></g><g><use xlink:href="#gT1aT0FVz" opacity="1" fill="#383434" fill-opacity="1"></use><g><use xlink:href="#gT1aT0FVz" opacity="1" fill-opacity="0" stroke="#000000" stroke-width="1" stroke-opacity="0"></use></g></g><g><use xlink:href="#b1zuDQ2NGC" opacity="1" fill="#383434" fill-opacity="1"></use><g><use xlink:href="#b1zuDQ2NGC" opacity="1" fill-opacity="0" stroke="#000000" stroke-width="1" stroke-opacity="0"></use></g></g><g><use xlink:href="#b2iOlrJ9mt" opacity="1" fill="#383434" fill-opacity="1"></use><g><use xlink:href="#b2iOlrJ9mt" opacity="1" fill-opacity="0" stroke="#000000" stroke-width="1" stroke-opacity="0"></use></g></g><g><use xlink:href="#d1502HU3p" opacity="1" fill="#383434" fill-opacity="1"></use><g><use xlink:href="#d1502HU3p" opacity="1" fill-opacity="0" stroke="#000000" stroke-width="1" stroke-opacity="0"></use></g></g><g><use xlink:href="#fgE9eJtHS" opacity="1" fill="#e3aa6a" fill-opacity="1"></use><g><use xlink:href="#fgE9eJtHS" opacity="1" fill-opacity="0" stroke="#000000" stroke-width="1" stroke-opacity="0"></use></g></g><g><use xlink:href="#c5M2ooo25k" opacity="1" fill="#d5724d" fill-opacity="1"></use><g><use xlink:href="#c5M2ooo25k" opacity="1" fill-opacity="0" stroke="#000000" stroke-width="1" stroke-opacity="0"></use></g></g><g><g><use xlink:href="#a3UnsrGEPm" opacity="1" fill="#383434" fill-opacity="1"></use><g><use xlink:href="#a3UnsrGEPm" opacity="1" fill-opacity="0" stroke="#000000" stroke-width="1" stroke-opacity="0"></use></g></g><g><use xlink:href="#aMiO83FCY" opacity="1" fill="#525153" fill-opacity="1"></use><g><use xlink:href="#aMiO83FCY" opacity="1" fill-opacity="0" stroke="#000000" stroke-width="1" stroke-opacity="0"></use></g></g><g><use xlink:href="#npoNynJK6" opacity="1" fill="#525153" fill-opacity="1"></use><g><use xlink:href="#npoNynJK6" opacity="1" fill-opacity="0" stroke="#000000" stroke-width="1" stroke-opacity="0"></use></g></g></g></g></g></svg>