<?xml version="1.0" encoding="UTF-8" standalone="no"?>
<!DOCTYPE svg PUBLIC "-//W3C//DTD SVG 1.1//EN" "http://www.w3.org/Graphics/SVG/1.1/DTD/svg11.dtd">
<svg version="1.1" xmlns="http://www.w3.org/2000/svg" xmlns:xlink="http://www.w3.org/1999/xlink" preserveAspectRatio="xMidYMid meet" viewBox="355.2422064636114 304.4524952097574 69.6996323107752 116.74846099509227" width="69.7" height="116.75"><defs><path d="M381.13 391.72L380.94 385.62L400.22 385.61L400.04 391.53L381.13 391.72" id="dqcbOaHGK"></path><path d="M377.7 404.29C377.09 403.83 363.35 397.36 363.35 397.36C357.24 399.38 355.86 413.11 355.24 421.2C356.22 421.2 361.09 421.2 369.85 421.2L377.7 404.29" id="b3yBe2oPTV"></path><path d="M402.05 404.29C402.66 403.83 416.4 397.36 416.4 397.36C422.51 399.38 423.89 413.11 424.51 421.2C423.53 421.2 418.66 421.2 409.9 421.2L402.05 404.29" id="agkrBwa2m"></path><path d="M389.87 382.31L383.43 382.31C383.43 384.76 383.43 386.11 383.43 386.38C383.43 388.91 383.01 388.39 380.65 389.7C380.65 389.7 378.37 391.57 377.67 391.79C380.54 401.02 382.61 412.88 388.21 421.2C388.32 421.2 388.88 421.2 389.87 421.2C390.87 421.2 391.43 421.2 391.54 421.2C397.14 412.88 399.21 401.02 402.08 391.79C401.38 391.57 399.1 389.7 399.1 389.7C396.74 388.39 396.32 388.91 396.32 386.38C396.32 386.11 396.32 384.76 396.32 382.31L389.87 382.31" id="f83DxRRsY"></path><path d="M390.45 404.71C390.45 404.71 388.44 402.06 387.51 400.55C384.71 396.01 380.74 389.79 380.64 389.74C377.21 391.3 364.67 396.21 363.27 397.43C364.41 399.92 366.14 410.18 367.63 421.2C369.11 421.2 376.53 421.2 389.87 421.2C403.22 421.2 410.64 421.2 412.12 421.2C413.61 410.18 415.34 399.92 416.48 397.43C415.07 396.21 402.54 391.3 399.11 389.74C399.02 389.78 396.53 396.19 393.64 400.55C392.44 402.36 390.45 404.71 390.45 404.71" id="cGsyOSP8E"></path><path d="M407.13 353.6C406.2 358.85 409.31 363.21 414.08 364.16C418.84 365.09 423.44 362.25 424.36 357.01C425.28 351.76 422.17 346.75 417.41 345.81C412.65 344.87 408.05 348.36 407.13 353.6" id="bklVS0Ki"></path><path d="M373.91 353.6C374.84 358.85 371.73 363.21 366.97 364.16C362.21 365.09 357.6 362.25 356.68 357.01C355.76 351.76 358.87 346.75 363.63 345.81C368.39 344.87 372.99 348.36 373.91 353.6" id="a20hQc2vVA"></path><path d="M414.28 322.37C409.63 316.06 402.38 311.91 394.68 311.61C394.68 311.61 394.53 311.6 394.28 311.59C394.29 311.56 394.29 311.32 394.29 311.29C394.29 311.29 392.43 311.36 390.5 311.44C388.58 311.36 386.71 311.29 386.71 311.29C386.71 311.32 386.72 311.56 386.72 311.59C386.47 311.6 386.32 311.61 386.32 311.61C378.62 311.91 371.38 316.06 366.73 322.37C362.08 328.69 361.46 336.65 361.83 344.27C362.1 350.03 363.12 359.33 363.41 365.09C370.81 392.76 410.7 393.21 417.59 365.09C417.88 359.33 418.9 350.03 419.18 344.27C419.54 336.65 418.93 328.69 414.28 322.37" id="areiZwBw1"></path><path d="M366.95 332.98C366.58 333.78 368.69 325.79 373.33 325.65C378.18 325.5 408.33 327.34 409.88 325.32C414.99 331.79 418.37 358.35 418.66 358.29C420.21 357.99 420.45 344.23 420.45 342.72C420.44 335.69 422.48 322.16 409.76 313.72C401.94 308.53 385.77 308.02 376.77 310.96C370.5 313 364.49 318.33 362.26 324.54C359.8 331.36 359.86 336.69 360.67 350.19C360.76 351.65 360.93 353.12 361.14 354.57C361.27 355.54 361.4 356.53 361.63 357.47C362.91 362.62 363.03 339.06 366.95 332.98" id="agpIZinBk"></path><path d="M365.11 325.83C365.32 326.42 366.09 329.34 376.21 332.77C386.33 336.19 396.04 336.27 395.3 336.11C394.57 335.95 392.37 333.99 392.37 333.99C392.37 333.99 399.63 336.36 404.93 335.87C410.23 335.38 414.07 332.36 413.42 332.36C412.76 332.36 409.83 331.05 409.83 331.05C409.83 331.05 416.44 327.87 420.27 323.46C424.11 319.06 425.33 314.9 424.84 315.31C424.35 315.71 421.09 317.34 421.58 316.77C422.06 316.2 422.47 309.68 422.47 309.68C422.47 309.68 419.62 311.63 418.8 311.8C417.99 311.96 419.7 306.41 419.7 306.41C419.7 306.41 411.87 307.88 407.38 307.23C402.89 306.57 400.36 305.27 393.75 304.94C387.14 304.61 383.15 306.57 383.15 306.57C383.25 306.36 384.1 304.66 384.21 304.45C384.21 304.45 374.95 307.1 372.5 308.94C370.05 310.78 367.77 314.49 367.77 314.49C367.77 314.49 365.44 313.75 363.57 313.84C361.69 313.92 360.87 314.37 360.87 314.37C361.3 314.5 364.69 315.61 365.12 315.75C365.12 315.75 363.2 316.28 361.77 317.55C360.34 318.81 359.16 320.28 359.77 319.91C360.38 319.55 363.89 319.22 363.89 319.22C363.97 319.66 364.38 321.86 365.11 325.83" id="bfRrGBW20"></path><path d="M383.86 395.3C384.21 395.3 386.15 395.61 386.15 395.61C386.24 395.94 386.69 397.59 387.51 400.55L382.63 398.3L383.86 395.3" id="bxADLm47a"></path><path d="M380.94 385.62C384.06 391.61 385.8 394.94 386.15 395.61C386.15 395.61 380.78 400.87 380.86 400.64C380.94 400.41 378.45 391.1 378.64 390.6C378.83 390.11 380.94 385.62 380.94 385.62" id="a1xtUxeVwO"></path><path d="M397.3 395.3C396.95 395.3 395.01 395.61 395.01 395.61C394.92 395.94 394.46 397.58 393.64 400.55L398.53 398.3L397.3 395.3" id="eeutczspw"></path><path d="M400.22 385.61C397.09 391.61 395.36 394.94 395.01 395.61C395.01 395.61 400.37 400.87 400.29 400.64C400.22 400.41 402.7 391.1 402.52 390.6C402.33 390.11 400.22 385.61 400.22 385.61" id="acYx7HEB9"></path><path d="M385.6 345.97C386.39 346.58 386.63 347.91 386.69 349.55C386.98 356.29 383.21 364.54 375.66 364.94C369.97 365.25 366.12 362.57 364.57 356.79C364.14 355.2 363.96 353.02 364.03 351.59C364.09 350.16 364.62 348.75 365.61 347.54C368.24 344.32 377.15 344.51 380.84 344.74C382.14 344.83 384.55 345.14 385.6 345.97C385.6 345.97 385.6 345.97 385.6 345.97ZM395.4 345.97C396.46 345.14 398.87 344.83 400.17 344.74C403.85 344.51 412.77 344.32 415.39 347.54C416.38 348.75 416.91 350.16 416.98 351.59C417.05 353.02 416.86 355.2 416.43 356.79C414.88 362.57 411.03 365.25 405.34 364.94C397.79 364.54 394.03 356.29 394.31 349.55C394.38 347.91 394.62 346.58 395.4 345.97C395.4 345.97 395.4 345.97 395.4 345.97ZM388.28 349.68C388.08 349.83 387.8 349.32 387.77 349.17C387.49 347.58 387.86 345.3 385.64 344.89C386.61 344.89 394.39 344.89 395.36 344.89C393.14 345.3 393.51 347.58 393.23 349.17C393.2 349.32 392.92 349.82 392.72 349.68C392.52 349.53 388.48 349.52 388.28 349.68C388.28 349.68 388.28 349.68 388.28 349.68ZM365.32 346.2C364.12 347.54 363.58 348.69 363.16 350.21C363.16 350.21 362.05 350.25 361.68 350.58C361.3 350.9 361.3 352.03 361.64 352.28C361.98 352.53 363.09 352.51 363.09 352.51C363.08 360.51 367.39 366.2 375.62 365.91C379.67 365.76 382.87 364.03 385.18 360.08C386.48 357.87 387.4 355.11 387.6 353.68C387.81 352.25 387.98 351.53 388.32 351.33C388.59 351.16 389.98 351.14 390.5 351.14C391.02 351.14 392.41 351.16 392.69 351.33C393.03 351.53 393.2 352.25 393.4 353.68C393.61 355.11 394.53 357.87 395.82 360.08C398.13 364.03 401.33 365.76 405.39 365.91C413.61 366.2 417.92 360.51 417.91 352.51C417.91 352.51 419.03 352.53 419.37 352.28C419.71 352.03 419.7 350.9 419.32 350.58C418.95 350.25 417.84 350.21 417.84 350.21C417.42 348.69 416.89 347.54 415.68 346.2C414.56 344.95 411.86 344.03 408.54 343.77C400.34 343.13 381.33 343.17 373.11 343.69C369.51 343.91 366.52 344.87 365.32 346.2C365.32 346.2 365.32 346.2 365.32 346.2" id="avzOw9YKD"></path><path d="M365.44 347.41C364.43 348.64 363.89 350.08 363.82 351.53C363.75 352.99 363.94 355.21 364.38 356.82C365.24 360.01 366.78 362.28 368.94 363.63C370.76 364.77 373.02 365.27 375.67 365.13C383.35 364.71 387.18 356.32 386.9 349.45C386.83 347.79 386.58 346.44 385.79 345.81C384.71 344.97 382.26 344.65 380.93 344.57C377.89 344.37 371.34 344.21 367.55 345.9C366.67 346.3 365.94 346.79 365.44 347.41" id="cRu2yhTNK"></path><path d="M394.18 349.49C393.9 356.31 397.71 364.65 405.34 365.06C407.97 365.2 410.22 364.7 412.03 363.56C414.17 362.22 415.7 359.97 416.55 356.81C416.98 355.21 417.17 353 417.1 351.55C417.04 350.11 416.5 348.68 415.5 347.46C415.01 346.85 414.28 346.36 413.41 345.97C409.65 344.28 403.13 344.44 400.11 344.63C398.79 344.72 396.35 345.04 395.28 345.87C394.49 346.49 394.25 347.84 394.18 349.49" id="e34AxCsM4e"></path><path d="M401.82 372.91C399.77 375.53 396.01 377.29 391.71 377.29C387.41 377.29 383.65 375.53 381.6 372.92C384.1 374.72 387.59 376.54 391.6 376.54C395.61 376.54 399.33 374.72 401.82 372.91" id="bm2q9ZE32"></path><path d="M386.61 369.87C386.58 369.86 386.57 369.84 386.6 369.81C386.6 369.69 386.66 369.58 386.78 369.48C387.7 367.72 389.5 362.58 390.32 356.92C391.23 356.98 389.43 366.55 388.65 368.83C389.43 368.69 390.39 368.61 391.42 368.61C394.08 368.61 396.24 369.15 396.24 369.81C396.24 370.46 394.08 371 391.42 371C388.85 371 386.75 370.5 386.61 369.87" id="a3sXGa4EUZ"></path></defs><g><g><g><use xlink:href="#dqcbOaHGK" opacity="1" fill="#76726e" fill-opacity="1"></use><g><use xlink:href="#dqcbOaHGK" opacity="1" fill-opacity="0" stroke="#000000" stroke-width="1" stroke-opacity="0"></use></g></g><g><use xlink:href="#b3yBe2oPTV" opacity="1" fill="#787472" fill-opacity="1"></use><g><use xlink:href="#b3yBe2oPTV" opacity="1" fill-opacity="0" stroke="#000000" stroke-width="1" stroke-opacity="0"></use></g></g><g><use xlink:href="#agkrBwa2m" opacity="1" fill="#787472" fill-opacity="1"></use><g><use xlink:href="#agkrBwa2m" opacity="1" fill-opacity="0" stroke="#000000" stroke-width="1" stroke-opacity="0"></use></g></g><g><use xlink:href="#f83DxRRsY" opacity="1" fill="#f4ad69" fill-opacity="1"></use><g><use xlink:href="#f83DxRRsY" opacity="1" fill-opacity="0" stroke="#000000" stroke-width="1" stroke-opacity="0"></use></g></g><g><use xlink:href="#cGsyOSP8E" opacity="1" fill="#7f7974" fill-opacity="1"></use><g><use xlink:href="#cGsyOSP8E" opacity="1" fill-opacity="0" stroke="#000000" stroke-width="1" stroke-opacity="0"></use></g></g><g><use xlink:href="#bklVS0Ki" opacity="1" fill="#f5b870" fill-opacity="1"></use><g><use xlink:href="#bklVS0Ki" opacity="1" fill-opacity="0" stroke="#000000" stroke-width="1" stroke-opacity="0"></use></g></g><g><use xlink:href="#a20hQc2vVA" opacity="1" fill="#f5b870" fill-opacity="1"></use><g><use xlink:href="#a20hQc2vVA" opacity="1" fill-opacity="0" stroke="#000000" stroke-width="1" stroke-opacity="0"></use></g></g><g><use xlink:href="#areiZwBw1" opacity="1" fill="#f7c386" fill-opacity="1"></use><g><use xlink:href="#areiZwBw1" opacity="1" fill-opacity="0" stroke="#000000" stroke-width="1" stroke-opacity="0"></use></g></g><g><use xlink:href="#agpIZinBk" opacity="1" fill="#392017" fill-opacity="1"></use><g><use xlink:href="#agpIZinBk" opacity="1" fill-opacity="0" stroke="#000000" stroke-width="1" stroke-opacity="0"></use></g></g><g><use xlink:href="#bfRrGBW20" opacity="1" fill="#392017" fill-opacity="1"></use><g><use xlink:href="#bfRrGBW20" opacity="1" fill-opacity="0" stroke="#000000" stroke-width="1" stroke-opacity="0"></use></g></g><g><use xlink:href="#bxADLm47a" opacity="1" fill="#6d6764" fill-opacity="1"></use><g><use xlink:href="#bxADLm47a" opacity="1" fill-opacity="0" stroke="#000000" stroke-width="1" stroke-opacity="0"></use></g></g><g><use xlink:href="#a1xtUxeVwO" opacity="1" fill="#9a958e" fill-opacity="1"></use><g><use xlink:href="#a1xtUxeVwO" opacity="1" fill-opacity="0" stroke="#000000" stroke-width="1" stroke-opacity="0"></use></g></g><g><use xlink:href="#eeutczspw" opacity="1" fill="#6d6764" fill-opacity="1"></use><g><use xlink:href="#eeutczspw" opacity="1" fill-opacity="0" stroke="#000000" stroke-width="1" stroke-opacity="0"></use></g></g><g><use xlink:href="#acYx7HEB9" opacity="1" fill="#9a958e" fill-opacity="1"></use><g><use xlink:href="#acYx7HEB9" opacity="1" fill-opacity="0" stroke="#000000" stroke-width="1" stroke-opacity="0"></use></g></g><g><use xlink:href="#avzOw9YKD" opacity="1" fill="#383434" fill-opacity="1"></use><g><use xlink:href="#avzOw9YKD" opacity="1" fill-opacity="0" stroke="#000000" stroke-width="1" stroke-opacity="0"></use></g></g><g><use xlink:href="#cRu2yhTNK" opacity="1" fill="#525153" fill-opacity="1"></use><g><use xlink:href="#cRu2yhTNK" opacity="1" fill-opacity="0" stroke="#000000" stroke-width="1" stroke-opacity="0"></use></g></g><g><use xlink:href="#e34AxCsM4e" opacity="1" fill="#525153" fill-opacity="1"></use><g><use xlink:href="#e34AxCsM4e" opacity="1" fill-opacity="0" stroke="#000000" stroke-width="1" stroke-opacity="0"></use></g></g><g><use xlink:href="#bm2q9ZE32" opacity="1" fill="#d5724d" fill-opacity="1"></use><g><use xlink:href="#bm2q9ZE32" opacity="1" fill-opacity="0" stroke="#000000" stroke-width="1" stroke-opacity="0"></use></g></g><g><use xlink:href="#a3sXGa4EUZ" opacity="1" fill="#e3aa6a" fill-opacity="1"></use><g><use xlink:href="#a3sXGa4EUZ" opacity="1" fill-opacity="0" stroke="#000000" stroke-width="1" stroke-opacity="0"></use></g></g></g></g></svg>